<?xml version="1.0" encoding="utf-8"?>
<!-- Generator: Adobe Illustrator 26.0.3, SVG Export Plug-In . SVG Version: 6.00 Build 0)  -->
<svg version="1.0" id="katman_1" xmlns="http://www.w3.org/2000/svg" xmlns:xlink="http://www.w3.org/1999/xlink" x="0px" y="0px"
	 viewBox="0 0 600 450" style="enable-background:new 0 0 600 450;" xml:space="preserve">
<style type="text/css">
	.st0{clip-path:url(#SVGID_00000037692976857420387190000008127076204421476262_);}
	.st1{fill:#3F4D98;}
	.st2{fill:#FDC32F;}
</style>
<g>
	<defs>
		<rect id="SVGID_1_" x="133.3" y="114.2" width="333.6" height="222.4"/>
	</defs>
	<clipPath id="SVGID_00000154397279529502278050000018114179342118508943_">
		<use xlink:href="#SVGID_1_"  style="overflow:visible;"/>
	</clipPath>
	<g style="clip-path:url(#SVGID_00000154397279529502278050000018114179342118508943_);">
		<path class="st1" d="M134.5,327.2v9.2h-1.2v-20.4h1.2V326h8.6v-10.1h1.2v20.4H143v-9.2H134.5z"/>
		<path class="st1" d="M149.2,317v11h3.5c1.5,0,2.8-0.5,3.9-1.6c1.1-1.1,1.6-2.4,1.6-3.9c0-1.5-0.5-2.8-1.6-3.9
			c-1.1-1.1-2.4-1.6-3.9-1.6H149.2z M153,329.2c-0.1,0-0.2,0-0.3,0h-3.5v7.1H148v-20.4h5.4c1.6,0.2,2.9,0.9,4,2c1.3,1.3,2,2.9,2,4.7
			c0,1.8-0.7,3.4-2,4.7c-0.9,0.9-1.9,1.5-3.1,1.8l4.7,7.3h-1.4L153,329.2z"/>
		<path class="st1" d="M179.4,315.9v1.2h-9.1v8.5h9.1v1.2h-9.1v8.5h9.1v1.2h-10.2v-20.4H179.4z"/>
		<path class="st1" d="M181.4,336.3l6.5-11.2l-5.3-9.2h1.3l4.7,8.1l4.7-8.1h1.3l-5.3,9.2l6.5,11.2h-1.3l-5.8-10.1l-5.8,10.1H181.4z"
			/>
		<path class="st1" d="M211.9,333.1l0.9,0.8c-2,1.8-4.3,2.7-7,2.7c-2.9,0-5.4-1-7.4-3.1c-2-2-3.1-4.5-3.1-7.4c0-2.9,1-5.4,3.1-7.4
			c2-2,4.5-3.1,7.4-3.1c2.7,0,5.1,0.9,7,2.7l-0.9,0.8c-1.8-1.6-3.8-2.3-6.2-2.3c-2.6,0-4.7,0.9-6.6,2.7c-1.8,1.8-2.7,4-2.7,6.6
			c0,2.6,0.9,4.8,2.7,6.6c1.8,1.8,4,2.7,6.6,2.7C208.1,335.4,210.1,334.6,211.9,333.1z"/>
		<path class="st1" d="M225.7,315.9v1.2h-9.1v8.5h9.1v1.2h-9.1v8.5h9.1v1.2h-10.2v-20.4H225.7z"/>
		<path class="st1" d="M229.7,336.3v-20.4h1.2v19.3h7.9v1.2H229.7z"/>
		<path class="st1" d="M241.3,336.3v-20.4h1.2v19.3h7.9v1.2H241.3z"/>
		<path class="st1" d="M262.9,315.9v1.2h-9.1v8.5h9.1v1.2h-9.1v8.5h9.1v1.2h-10.2v-20.4H262.9z"/>
		<path class="st1" d="M266.4,315.9h1.3l10.5,18.2v-18.2h1.2v20.4h-1.2L267.6,318v18.4h-1.1V315.9z"/>
		<path class="st1" d="M299,333.1l0.9,0.8c-2,1.8-4.3,2.7-7,2.7c-2.9,0-5.4-1-7.4-3.1c-2-2-3.1-4.5-3.1-7.4c0-2.9,1-5.4,3.1-7.4
			c2-2,4.5-3.1,7.4-3.1c2.7,0,5,0.9,7,2.7l-0.9,0.8c-1.8-1.6-3.8-2.3-6.2-2.3c-2.6,0-4.8,0.9-6.6,2.7c-1.8,1.8-2.7,4-2.7,6.6
			c0,2.6,0.9,4.8,2.7,6.6c1.8,1.8,4,2.7,6.6,2.7C295.1,335.4,297.2,334.6,299,333.1z"/>
		<path class="st1" d="M312.2,315.9v1.2h-9.1v8.5h9.1v1.2h-9.1v8.5h9.1v1.2H302v-20.4H312.2z"/>
		<path class="st1" d="M322.1,336.3h1.1v-20.4h-1.1V336.3z"/>
		<path class="st1" d="M328.9,315.9h1.3l10.5,18.2v-18.2h1.2v20.4h-1.2L330.1,318v18.4h-1.2V315.9z"/>
		<path class="st1" d="M354.1,317v11h3.5c1.5,0,2.8-0.5,3.9-1.6c1.1-1.1,1.6-2.4,1.6-3.9c0-1.5-0.5-2.8-1.6-3.9
			c-1.1-1.1-2.4-1.6-3.9-1.6H354.1z M357.9,329.2c-0.1,0-0.2,0-0.3,0h-3.5v7.1h-1.2v-20.4h5.4c1.6,0.2,2.9,0.9,4,2
			c1.3,1.3,2,2.9,2,4.7c0,1.8-0.7,3.4-2,4.7c-0.9,0.9-1.9,1.5-3.1,1.8l4.7,7.3h-1.4L357.9,329.2z"/>
		<path class="st1" d="M376.8,315.9v1.2h-9.1v8.5h9.1v1.2h-9.1v8.5h9.1v1.2h-10.2v-20.4H376.8z"/>
		<path class="st1" d="M384.9,325c-1.5-0.5-2.6-1.2-3.5-2c-0.8-0.8-1.3-1.9-1.3-3.1c0-1.2,0.4-2.2,1.3-3c0.8-0.8,1.9-1.3,3.1-1.3
			c1.2,0,2.2,0.4,3.1,1.3c0.5,0.4,0.8,1,1,1.5l-1,0.4c-0.2-0.4-0.4-0.8-0.8-1.1c-0.6-0.6-1.4-0.9-2.2-0.9c-0.9,0-1.6,0.3-2.2,0.9
			c-0.6,0.6-0.9,1.4-0.9,2.3c0,0.9,0.3,1.6,0.9,2.2c0.6,0.6,1.4,1.1,2.4,1.6c1.6,0.5,3,1.4,4.1,2.5c1.2,1.2,1.8,2.6,1.8,4.3
			c0,1.7-0.6,3.1-1.8,4.3c-1.2,1.2-2.6,1.8-4.3,1.8c-1.7,0-3.1-0.6-4.3-1.8c-0.9-0.9-1.5-2-1.7-3.3l1.1-0.4c0.1,1.1,0.6,2.1,1.4,2.9
			c1,1,2.1,1.4,3.5,1.4c1.4,0,2.5-0.5,3.5-1.4c1-1,1.4-2.1,1.4-3.5c0-1.4-0.5-2.5-1.4-3.5C387.1,326.2,386.1,325.5,384.9,325z"/>
		<path class="st1" d="M403.8,315.9v1.2h-9.1v8.5h9.1v1.2h-9.1v8.5h9.1v1.2h-10.2v-20.4H403.8z"/>
		<path class="st1" d="M416,327.3l-3.1-8.6l-3.1,8.6H416z M416.4,328.5h-7.1l-2.8,7.8h-1.2l7.6-20.9l7.6,20.9h-1.2L416.4,328.5z"/>
		<path class="st1" d="M423.9,317v11h3.5c1.5,0,2.8-0.5,3.9-1.6c1.1-1.1,1.6-2.4,1.6-3.9c0-1.5-0.5-2.8-1.6-3.9
			c-1.1-1.1-2.4-1.6-3.9-1.6H423.9z M427.8,329.2c-0.1,0-0.2,0-0.3,0h-3.5v7.1h-1.2v-20.4h5.4c1.6,0.2,2.9,0.9,4,2
			c1.3,1.3,2,2.9,2,4.7c0,1.8-0.7,3.4-2,4.7c-0.9,0.9-1.9,1.5-3.1,1.8l4.7,7.3h-1.4L427.8,329.2z"/>
		<path class="st1" d="M452.5,333.1l0.9,0.8c-2,1.8-4.3,2.7-7,2.7c-2.9,0-5.4-1-7.4-3.1c-2-2-3.1-4.5-3.1-7.4c0-2.9,1-5.4,3.1-7.4
			c2-2,4.5-3.1,7.4-3.1c2.7,0,5,0.9,7,2.7l-0.9,0.8c-1.8-1.6-3.8-2.3-6.2-2.3c-2.6,0-4.8,0.9-6.6,2.7c-1.8,1.8-2.7,4-2.7,6.6
			c0,2.6,0.9,4.8,2.7,6.6c1.8,1.8,4,2.7,6.6,2.7C448.7,335.4,450.8,334.6,452.5,333.1z"/>
		<path class="st1" d="M457.2,327.2v9.2H456v-20.4h1.2V326h8.6v-10.1h1.2v20.4h-1.2v-9.2H457.2z"/>
		<path class="st2" d="M344.1,168.5c0-10.9-8.9-19.8-19.8-19.8c-10.9,0-19.8,8.9-19.8,19.8c0,10.9,8.9,19.8,19.8,19.8
			C335.3,188.3,344.1,179.4,344.1,168.5z"/>
		<path class="st1" d="M374,175.9c-12.1,0-22.4,4.2-31.1,12.7c-8.6,8.5-13,18.7-13,30.7v52.8c7.1,0,12.6-1.9,16.5-5.8
			c3.9-3.9,5.8-8.5,5.8-13.9v-33.1c0-6,2.1-11.2,6.3-15.5c4.2-4.3,9.3-6.5,15.4-6.5h2.6v-21.4H374z"/>
		<path class="st1" d="M276,175.9c12.1,0,22.4,4.2,31.1,12.7c8.6,8.5,13,18.7,13,30.7v52.8c-7.1,0-12.6-1.9-16.5-5.8
			c-3.9-3.9-5.8-8.5-5.8-13.9v-33.1c0-6-2.1-11.2-6.3-15.5c-4.2-4.3-9.4-6.5-15.4-6.5h-2.6v-21.4H276z"/>
		<path class="st1" d="M260.8,120c-3.8-3.8-9.2-5.8-16-5.8h-0.5v157.9c7.1,0,12.6-1.9,16.5-5.8c3.1-3.2,5.6-6.6,5.6-23.2V138.2
			C266.4,126,264,123.2,260.8,120z"/>
	</g>
</g>
</svg>
